<?xml version="1.0" encoding="UTF-8" standalone="no"?>
<svg viewBox="0 0 672.57526 612.86163" xmlns="http://www.w3.org/2000/svg">
<title>Yoga</title>
<g transform="translate(-189.89345,-373.88412)">
<path d="m524.54596,373.88412c-42.92773,0-77.75819,34.8305-77.75819,77.75822s34.83046,77.69767 77.75819,77.69767 77.69771-34.76988 77.69771-77.69767-34.76992-77.75822-77.69771-77.75822zm-148.67323,197.0602-94.41205,163.57088-57.53141.48445c-19.01963.17277-34.20705,15.68092-34.03436,34.70055s15.62031,34.14644 34.63994,33.97378l68.67433-.60557c15.73433-.77548 29.74549-6.32417 39.12136-19.37899l78.30325-135.59245 11.62742,183.85823-169.26345-24.34483c-21.54963-3.32544-41.60963,11.33408-44.93504,32.88372l-2.42241,15.56376c-3.32537,21.54964 11.39469,41.60968 32.94433,44.93505l251.68475,38.87911 6.17705,19.8029c6.81859,20.71116 28.94752,31.89022 49.65868,25.0716l261.7376-86.11544c20.71116-6.81859 31.89019-29.0081 25.0716-49.71922l-4.9659-14.95815c-6.81859-20.71116-28.94752-31.89022-49.65868-25.0716l-152.60961,46.44902 12.77803-212.8056 81.5129,141.1639c8.29676,13.44734 24.04814,18.68552 39.18194,19.37899l68.61375.60557c19.01963.17277 34.52786-14.95414 34.70052-33.97378s-15.01473-34.52785-34.03436-34.70055l-57.59195-.48445-94.41209-163.57088c-16.71563-28.96023-280.78308-34.25723-300.55614,0z"/>
</g>
</svg>
