<?xml version="1.0" encoding="UTF-8"?>
<!DOCTYPE svg PUBLIC "-//W3C//DTD SVG 1.1 Tiny//EN" "http://www.w3.org/Graphics/SVG/1.1/DTD/svg11-tiny.dtd">
<svg version="1.1"
  baseProfile="tiny"
  xmlns="http://www.w3.org/2000/svg"
  xmlns:xlink="http://www.w3.org/1999/xlink"
  viewBox="0 0 230 140"
  width="230"
  height="140"
  preserveAspectRatio="xMidYMid">

  <defs>
    <!-- Here come my pre-defined shapes for easy reference -->
    <rect id="sumti" x="0" y="0" width="30" height="30" fill="#663399" />

    <!-- and here's the Lojban font -->
    <path id="lybu" d="M0,50 h10 v50 h-10 v-50" />
    <path id="l1" d="M0,50h11.125v55.H0V50z" />
    <path id="l2" d="M40.071,104.333c-5.193,0-9.521-1.154-12.982-3.463c-2.961-1.98-5.193-4.715-6.697-8.204 c-1.281-2.984-1.92-6.172-1.92-9.559c0-5.67,1.654-10.438,4.967-14.301c3.914-4.566,9.457-6.85,16.633-6.85 c5.895,0,10.813,1.67,14.752,5.006c4.516,3.813,6.773,9.195,6.773,16.145c0,6.121-1.844,11.127-5.531,15.016 C52.151,102.264,46.819,104.333,40.071,104.333z M39.966,95.582c2.635,0,4.881-0.803,6.74-2.41 c2.51-2.158,3.766-5.447,3.766-9.865c0-4.016-1.018-7.127-3.051-9.338c-1.859-2.008-4.27-3.012-7.23-3.012 c-3.063,0-5.549,1.055-7.455,3.162c-2.01,2.234-3.014,5.297-3.014,9.188c0,3.715,0.953,6.689,2.861,8.924 S36.952,95.582,39.966,95.582z" />
    <circle id="obu" r="15" fill="none" stroke="black" stroke-width="10" />
    <path id="l3" d="M58.831,117.958v-8.5h4.59c1.766,0,3.01-0.426,3.732-1.277c1.02-1.203,1.529-3.584,1.529-7.143 V62.852h11.125v38.653c0,4.957-0.752,8.689-2.252,11.193c-1.352,2.229-3.439,3.719-6.266,4.471 c-2.002,0.525-5.191,0.789-9.57,0.789H58.831z M68.683,48.082h11.125v10.125H68.683V48.082z" />
    <path id="l4" d="M89.712,103.458V48.082h10.625v14.75h9.344c6.654,0,11.664,1.617,15.031,4.852 c3.666,3.537,5.5,9.029,5.5,16.477c0,3.135-0.553,6.02-1.656,8.652c-1.355,3.211-3.389,5.706-6.098,7.485 c-3.213,2.107-7.266,3.16-12.158,3.16H89.712z M106.972,71.707h-6.635v23l3.318,0.125c3.668,0,6.332-0.15,7.992-0.451 c2.262-0.4,3.932-1.203,5.014-2.406c1.207-1.328,1.924-3.322,2.15-5.979c0.1-1.002,0.15-2.055,0.15-3.158 c0-4.262-1.068-7.244-3.205-8.949C113.921,72.436,110.994,71.707,106.972,71.707z" />
    <path id="l5" d="M155.951,71.207h-17.883v-8.375h21.946c11.148,0,16.723,5.053,16.723,15.158v25.467h-28.748 c-3.91,0-6.993-1.076-9.247-3.229s-3.381-5.081-3.381-8.784c0-4.93,1.6-8.371,4.801-10.324 c2.5-1.525,6.299-2.289,11.399-2.289h14.176c0-2.883-0.695-4.873-2.082-5.975C162.268,71.758,159.699,71.207,155.951,71.207z M152.41,95.332h13.326v-8.375h-12.58c-1.941,0-3.359,0.199-4.256,0.594c-1.443,0.643-2.164,1.84-2.164,3.594 c0,1.656,0.484,2.793,1.455,3.41C149.012,95.074,150.418,95.332,152.41,95.332z" />
    <path id="l6" d="M197.477,103.458h-10.625V62.832h20.104c6.035,0,10.381,1.129,13.037,3.387 s3.984,6.08,3.984,11.471v25.768h-10.875V79.09c0-3.008-0.377-4.939-1.127-5.791c-0.852-0.977-2.805-1.467-5.859-1.467 h-8.639V103.458z" />
    <path id="l7" d="M0,115.029h3.75v18.719H0V115.029z" />
    <path id="l8" d="M18.378,130.904v2.844h-5.281c-1.794,0-3.246-0.364-4.354-1.093 c-0.939-0.617-1.625-1.49-2.057-2.616c-0.347-0.906-0.521-1.96-0.521-3.163c0-1.981,0.495-3.561,1.485-4.738 c1.185-1.405,3-2.108,5.446-2.108h5.281v2.844h-4.789c-1.186,0-2.016,0.146-2.49,0.438c-0.602,0.366-0.902,1.075-0.902,2.125 h8.181v2.906h-8.181c0,1.037,0.222,1.724,0.667,2.06c0.444,0.336,1.344,0.503,2.699,0.503H18.378z" />
    <path id="l9" d="M85.943,115.029h3.75v18.719h-3.75V115.029z" />
    <path id="l10" d="M99.278,134.029c-1.754,0-3.215-0.389-4.384-1.167c-1-0.668-1.754-1.59-2.262-2.765 c-0.432-1.006-0.648-2.08-0.648-3.222c0-1.91,0.559-3.518,1.677-4.82c1.321-1.538,3.194-2.308,5.617-2.308 c1.991,0,3.651,0.563,4.981,1.687c1.524,1.285,2.287,3.1,2.287,5.441c0,2.063-0.623,3.75-1.868,5.061 C103.357,133.332,101.557,134.029,99.278,134.029z M99.221,131.06c0.889,0,1.647-0.271,2.274-0.811 c0.847-0.726,1.271-1.831,1.271-3.317c0-1.351-0.343-2.396-1.029-3.141c-0.627-0.675-1.44-1.013-2.439-1.013 c-1.033,0-1.872,0.354-2.516,1.063c-0.678,0.752-1.016,1.781-1.016,3.09c0,1.25,0.322,2.25,0.965,3.001 S98.204,131.06,99.221,131.06z" />
    <path id="l11" d="M115.15,120.029h6.62v13.19c0,1.973-0.454,3.391-1.36,4.254c-0.822,0.787-2.105,1.181-3.851,1.181 h-7.117v-2.781h6.481c1.46,0,2.19-0.708,2.19-2.125h-2.953c-2.597,0-4.497-0.694-5.702-2.083 c-1.001-1.151-1.502-2.73-1.502-4.738c0-1.998,0.504-3.586,1.512-4.764C110.689,120.741,112.583,120.029,115.15,120.029z M116.229,130.904h1.885v-7.953c-0.28-0.067-0.554-0.118-0.822-0.152s-0.558-0.051-0.873-0.051 c-1.299,0-2.356,0.31-3.172,0.927c-0.985,0.746-1.478,1.859-1.478,3.342c0,1.448,0.382,2.473,1.146,3.074 C113.604,130.633,114.708,130.904,116.229,130.904z" />
    <path id="l12" d="M121.542,138.654v-2.875h1.565c0.602,0,1.026-0.144,1.272-0.432 c0.348-0.406,0.521-1.21,0.521-2.412v-12.898h3.75v13.059c0,1.675-0.254,2.936-0.763,3.782 c-0.458,0.752-1.166,1.256-2.124,1.51c-0.678,0.178-1.759,0.267-3.243,0.267H121.542z M124.9,115.029h3.75v3.406h-3.75 V115.029z" />
    <path id="l13" d="M131.949,115.029h3.75v3.406h-3.75V115.029z M131.949,120.037h3.75v13.711h-3.75V120.037z" />
    <path id="l14" d="M146.237,133.748v-18.719h3.594v5h3.147c2.241,0,3.929,0.546,5.063,1.639 c1.234,1.194,1.853,3.049,1.853,5.563c0,1.059-0.187,2.033-0.559,2.922c-0.457,1.084-1.142,1.927-2.056,2.527 c-1.084,0.712-2.45,1.067-4.1,1.067H146.237z M152.068,122.998h-2.237v7.813l1.119,0.031c1.237,0,2.136-0.051,2.695-0.153 c0.763-0.135,1.327-0.408,1.691-0.816c0.406-0.45,0.647-1.126,0.725-2.027c0.034-0.34,0.051-0.697,0.051-1.071 c0-1.445-0.36-2.458-1.081-3.036C154.412,123.245,153.426,122.998,152.068,122.998z" />
    <path id="l15" d="M168.555,122.873h-6.054v-2.844h7.409c3.764,0,5.646,1.706,5.646,5.119v8.6h-9.706 c-1.319,0-2.359-0.364-3.121-1.094s-1.142-1.722-1.142-2.977c0-1.67,0.542-2.836,1.624-3.497 c0.847-0.518,2.133-0.776,3.859-0.776h4.798c0-0.957-0.235-1.618-0.704-1.983 C170.693,123.055,169.824,122.873,168.555,122.873z M167.331,131.029h4.537v-2.906h-4.282c-0.662,0-1.145,0.069-1.449,0.206 c-0.492,0.223-0.737,0.639-0.737,1.247c0,0.575,0.165,0.97,0.495,1.183C166.174,130.939,166.653,131.029,167.331,131.029z" />
    <path id="l16" d="M182.527,133.748h-3.594v-13.719h6.786c2.038,0,3.505,0.382,4.401,1.144s1.344,2.054,1.344,3.874 v8.701h-3.656v-8.235c0-1.016-0.127-1.668-0.381-1.957c-0.287-0.33-0.947-0.495-1.98-0.495h-2.92V133.748z" />
    <path id="l17" d="M200.902,120.029h6.621v13.19c0,1.973-0.454,3.391-1.36,4.254 c-0.821,0.787-2.105,1.181-3.851,1.181h-7.117v-2.781h6.481c1.46,0,2.19-0.708,2.19-2.125h-2.953 c-2.597,0-4.497-0.694-5.701-2.083c-1.002-1.151-1.502-2.73-1.502-4.738c0-1.998,0.504-3.586,1.512-4.764 C196.442,120.741,198.336,120.029,200.902,120.029z M201.981,130.904h1.886v-7.953c-0.281-0.067-0.555-0.118-0.822-0.152 s-0.559-0.051-0.873-0.051c-1.299,0-2.355,0.31-3.172,0.927c-0.984,0.746-1.477,1.859-1.477,3.342 c0,1.448,0.381,2.473,1.146,3.074C199.357,130.633,200.461,130.904,201.981,130.904z" />
    <path id="l18" d="M219.402,120.029h3.625v13.719h-6.821c-2.016,0-3.466-0.404-4.351-1.213s-1.328-2.081-1.328-3.817 v-8.688h3.594v8.433c0,0.771,0.115,1.309,0.344,1.613c0.338,0.449,1.002,0.673,1.992,0.673h2.945V120.029z" />
  </defs>
  <!-- Here's the real drawing -->
  <use xlink:href="#sumti" id="use27" />
  <polygon id="selbri" fill="#CC0066" points="230,40 70,40 70,0 40,0 40,40 0,40 0,50 40,50 40,140 50,140 50,103 60,103 60,140 70,140 70,50 230,50" />
  <use xlink:href="#sumti" transform="translate(80, 0)" id="use30" />
  <use xlink:href="#sumti" transform="translate(120, 0)" id="use32" />
  <use xlink:href="#sumti" transform="translate(160, 0)" id="use34" />
  <use xlink:href="#sumti" transform="translate(200, 0)" id="use36" />

  <use xlink:href="#l1" />
  <use xlink:href="#l2" />
  <use xlink:href="#l3" transform="translate(1.169,1.920)" />
  <use xlink:href="#l4" transform="translate(0,1.925)" />
  <use xlink:href="#l5" transform="translate(0,2)" />
  <use xlink:href="#l6" transform="translate(0,2)" />
  <use xlink:href="#l7" />
  <use xlink:href="#l8" />
  <use xlink:href="#l9" />
  <use xlink:href="#l10" />
  <use xlink:href="#l11" />
  <use xlink:href="#l12" />
  <use xlink:href="#l13" />
  <use xlink:href="#l14" />
  <use xlink:href="#l15" />
  <use xlink:href="#l16" />
  <use xlink:href="#l17" />
  <use xlink:href="#l18" />
</svg>
